# Wavefront OBJ file automatically generated by Tiled2Unity

# Vertices (Count = 231)
v 0 -50 0
v -50 -50 0
v -50 0 0
v 0 0 0
v -100 -50 0
v -100 0 0
v -150 -50 0
v -150 0 0
v -200 -50 0
v -200 0 0
v -250 -50 0
v -250 0 0
v -300 -50 0
v -300 0 0
v -350 -50 0
v -350 0 0
v -400 -50 0
v -400 0 0
v -450 -50 0
v -450 0 0
v -500 -50 0
v -500 0 0
v 0 -100 0
v -50 -100 0
v -100 -100 0
v -150 -100 0
v -200 -100 0
v -250 -100 0
v -300 -100 0
v -350 -100 0
v -400 -100 0
v -450 -100 0
v -500 -100 0
v 0 -150 0
v -50 -150 0
v -100 -150 0
v -150 -150 0
v -200 -150 0
v -250 -150 0
v -300 -150 0
v -350 -150 0
v -400 -150 0
v -450 -150 0
v -500 -150 0
v 0 -200 0
v -50 -200 0
v -100 -200 0
v -150 -200 0
v -200 -200 0
v -250 -200 0
v -300 -200 0
v -350 -200 0
v -400 -200 0
v -450 -200 0
v -500 -200 0
v 0 -250 0
v -50 -250 0
v -100 -250 0
v -150 -250 0
v -200 -250 0
v -250 -250 0
v -300 -250 0
v -350 -250 0
v -400 -250 0
v -450 -250 0
v -500 -250 0
v 0 -300 0
v -50 -300 0
v -100 -300 0
v -150 -300 0
v -200 -300 0
v -250 -300 0
v -300 -300 0
v -350 -300 0
v -400 -300 0
v -450 -300 0
v -500 -300 0
v 0 -350 0
v -50 -350 0
v -100 -350 0
v -150 -350 0
v -200 -350 0
v -250 -350 0
v -300 -350 0
v -350 -350 0
v -400 -350 0
v -450 -350 0
v -500 -350 0
v 0 -400 0
v -50 -400 0
v -100 -400 0
v -150 -400 0
v -200 -400 0
v -250 -400 0
v -300 -400 0
v -350 -400 0
v -400 -400 0
v -450 -400 0
v -500 -400 0
v 0 -450 0
v -50 -450 0
v -100 -450 0
v -150 -450 0
v -200 -450 0
v -250 -450 0
v -300 -450 0
v -350 -450 0
v -400 -450 0
v -450 -450 0
v -500 -450 0
v 0 -500 0
v -50 -500 0
v -100 -500 0
v -150 -500 0
v -200 -500 0
v -250 -500 0
v -300 -500 0
v -350 -500 0
v -400 -500 0
v -450 -500 0
v -500 -500 0
v 0 -550 0
v -50 -550 0
v -100 -550 0
v -150 -550 0
v -200 -550 0
v -250 -550 0
v -300 -550 0
v -350 -550 0
v -400 -550 0
v -450 -550 0
v -500 -550 0
v 0 -600 0
v -50 -600 0
v -100 -600 0
v -150 -600 0
v -200 -600 0
v -250 -600 0
v -300 -600 0
v -350 -600 0
v -400 -600 0
v -450 -600 0
v -500 -600 0
v 0 -650 0
v -50 -650 0
v -100 -650 0
v -150 -650 0
v -200 -650 0
v -250 -650 0
v -300 -650 0
v -350 -650 0
v -400 -650 0
v -450 -650 0
v -500 -650 0
v 0 -700 0
v -50 -700 0
v -100 -700 0
v -150 -700 0
v -200 -700 0
v -250 -700 0
v -300 -700 0
v -350 -700 0
v -400 -700 0
v -450 -700 0
v -500 -700 0
v 0 -750 0
v -50 -750 0
v -100 -750 0
v -150 -750 0
v -200 -750 0
v -250 -750 0
v -300 -750 0
v -350 -750 0
v -400 -750 0
v -450 -750 0
v -500 -750 0
v 0 -800 0
v -50 -800 0
v -100 -800 0
v -150 -800 0
v -200 -800 0
v -250 -800 0
v -300 -800 0
v -350 -800 0
v -400 -800 0
v -450 -800 0
v -500 -800 0
v 0 -850 0
v -50 -850 0
v -100 -850 0
v -150 -850 0
v -200 -850 0
v -250 -850 0
v -300 -850 0
v -350 -850 0
v -400 -850 0
v -450 -850 0
v -500 -850 0
v 0 -900 0
v -50 -900 0
v -100 -900 0
v -150 -900 0
v -200 -900 0
v -250 -900 0
v -300 -900 0
v -350 -900 0
v -400 -900 0
v -450 -900 0
v -500 -900 0
v 0 -950 0
v -50 -950 0
v -100 -950 0
v -150 -950 0
v -200 -950 0
v -250 -950 0
v -300 -950 0
v -350 -950 0
v -400 -950 0
v -450 -950 0
v -500 -950 0
v 0 -1000 0
v -50 -1000 0
v -100 -1000 0
v -150 -1000 0
v -200 -1000 0
v -250 -1000 0
v -300 -1000 0
v -350 -1000 0
v -400 -1000 0
v -450 -1000 0
v -500 -1000 0

# Texture cooridinates (Count = 60)
vt 0.666687 4.070997E-05
vt 0.833313 4.070997E-05
vt 0.833313 0.3332927
vt 0.666687 0.3332927
vt 0.8333537 4.070997E-05
vt 0.9999797 4.070997E-05
vt 0.9999797 0.3332927
vt 0.8333537 0.3332927
vt 0.5000203 0.6667074
vt 0.6666463 0.6667074
vt 0.6666463 0.9999593
vt 0.5000203 0.9999593
vt 0.666687 0.6667074
vt 0.833313 0.6667074
vt 0.833313 0.9999593
vt 0.666687 0.9999593
vt 0.166687 0.6667074
vt 0.333313 0.6667074
vt 0.333313 0.9999593
vt 0.166687 0.9999593
vt 0.3333537 0.6667074
vt 0.4999796 0.6667074
vt 0.4999796 0.9999593
vt 0.3333537 0.9999593
vt 2.034505E-05 0.333374
vt 0.1666463 0.333374
vt 0.1666463 0.666626
vt 2.034505E-05 0.666626
vt 0.8333537 0.6667074
vt 0.9999797 0.6667074
vt 0.9999797 0.9999593
vt 0.8333537 0.9999593
vt 0.166687 0.333374
vt 0.333313 0.333374
vt 0.333313 0.666626
vt 0.166687 0.666626
vt 0.666687 0.333374
vt 0.833313 0.333374
vt 0.833313 0.666626
vt 0.666687 0.666626
vt 0.8333537 0.333374
vt 0.9999797 0.333374
vt 0.9999797 0.666626
vt 0.8333537 0.666626
vt 0.3333537 0.333374
vt 0.4999796 0.333374
vt 0.4999796 0.666626
vt 0.3333537 0.666626
vt 0.5000203 0.333374
vt 0.6666463 0.333374
vt 0.6666463 0.666626
vt 0.5000203 0.666626
vt 0.5000203 4.070997E-05
vt 0.6666463 4.070997E-05
vt 0.6666463 0.3332927
vt 0.5000203 0.3332927
vt 0.3333537 4.070997E-05
vt 0.4999796 4.070997E-05
vt 0.4999796 0.3332927
vt 0.3333537 0.3332927

# Normal
vn 0 0 -1

# Groups (Count = 1)

g mesh_0001
f 1/1/1 2/2/1 3/3/1 4/4/1
f 2/5/1 5/6/1 6/7/1 3/8/1
f 5/9/1 7/10/1 8/11/1 6/12/1
f 7/13/1 9/14/1 10/15/1 8/16/1
f 9/17/1 11/18/1 12/19/1 10/20/1
f 11/17/1 13/18/1 14/19/1 12/20/1
f 13/17/1 15/18/1 16/19/1 14/20/1
f 15/17/1 17/18/1 18/19/1 16/20/1
f 17/17/1 19/18/1 20/19/1 18/20/1
f 19/21/1 21/22/1 22/23/1 20/24/1
f 23/25/1 24/26/1 2/27/1 1/28/1
f 24/29/1 25/30/1 5/31/1 2/32/1
f 25/33/1 26/34/1 7/35/1 5/36/1
f 26/33/1 27/34/1 9/35/1 7/36/1
f 27/33/1 28/34/1 11/35/1 9/36/1
f 28/9/1 29/10/1 13/11/1 11/12/1
f 29/13/1 30/14/1 15/15/1 13/16/1
f 30/37/1 31/38/1 17/39/1 15/40/1
f 31/41/1 32/42/1 19/43/1 17/44/1
f 32/45/1 33/46/1 21/47/1 19/48/1
f 34/25/1 35/26/1 24/27/1 23/28/1
f 35/33/1 36/34/1 25/35/1 24/36/1
f 36/33/1 37/34/1 26/35/1 25/36/1
f 37/33/1 38/34/1 27/35/1 26/36/1
f 38/33/1 39/34/1 28/35/1 27/36/1
f 39/33/1 40/34/1 29/35/1 28/36/1
f 40/33/1 41/34/1 30/35/1 29/36/1
f 41/1/1 42/2/1 31/3/1 30/4/1
f 42/5/1 43/6/1 32/7/1 31/8/1
f 43/45/1 44/46/1 33/47/1 32/48/1
f 45/25/1 46/26/1 35/27/1 34/28/1
f 46/33/1 47/34/1 36/35/1 35/36/1
f 47/29/1 48/30/1 37/31/1 36/32/1
f 48/33/1 49/34/1 38/35/1 37/36/1
f 49/33/1 50/34/1 39/35/1 38/36/1
f 50/33/1 51/34/1 40/35/1 39/36/1
f 51/37/1 52/38/1 41/39/1 40/40/1
f 52/41/1 53/42/1 42/43/1 41/44/1
f 53/33/1 54/34/1 43/35/1 42/36/1
f 54/45/1 55/46/1 44/47/1 43/48/1
f 56/25/1 57/26/1 46/27/1 45/28/1
f 57/33/1 58/34/1 47/35/1 46/36/1
f 58/33/1 59/34/1 48/35/1 47/36/1
f 59/33/1 60/34/1 49/35/1 48/36/1
f 60/33/1 61/34/1 50/35/1 49/36/1
f 61/33/1 62/34/1 51/35/1 50/36/1
f 62/1/1 63/2/1 52/3/1 51/4/1
f 63/5/1 64/6/1 53/7/1 52/8/1
f 64/29/1 65/30/1 54/31/1 53/32/1
f 65/45/1 66/46/1 55/47/1 54/48/1
f 67/25/1 68/26/1 57/27/1 56/28/1
f 68/33/1 69/34/1 58/35/1 57/36/1
f 69/33/1 70/34/1 59/35/1 58/36/1
f 70/33/1 71/34/1 60/35/1 59/36/1
f 71/33/1 72/34/1 61/35/1 60/36/1
f 72/33/1 73/34/1 62/35/1 61/36/1
f 73/33/1 74/34/1 63/35/1 62/36/1
f 74/9/1 75/10/1 64/11/1 63/12/1
f 75/13/1 76/14/1 65/15/1 64/16/1
f 76/45/1 77/46/1 66/47/1 65/48/1
f 78/49/1 79/50/1 68/51/1 67/52/1
f 79/33/1 80/34/1 69/35/1 68/36/1
f 80/29/1 81/30/1 70/31/1 69/32/1
f 81/33/1 82/34/1 71/35/1 70/36/1
f 82/33/1 83/34/1 72/35/1 71/36/1
f 83/33/1 84/34/1 73/35/1 72/36/1
f 84/33/1 85/34/1 74/35/1 73/36/1
f 85/37/1 86/38/1 75/39/1 74/40/1
f 86/41/1 87/42/1 76/43/1 75/44/1
f 87/45/1 88/46/1 77/47/1 76/48/1
f 89/53/1 90/54/1 79/55/1 78/56/1
f 90/33/1 91/34/1 80/35/1 79/36/1
f 91/33/1 92/34/1 81/35/1 80/36/1
f 92/33/1 93/34/1 82/35/1 81/36/1
f 93/33/1 94/34/1 83/35/1 82/36/1
f 94/33/1 95/34/1 84/35/1 83/36/1
f 95/33/1 96/34/1 85/35/1 84/36/1
f 96/1/1 97/2/1 86/3/1 85/4/1
f 97/5/1 98/6/1 87/7/1 86/8/1
f 98/45/1 99/46/1 88/47/1 87/48/1
f 100/5/1 101/6/1 90/7/1 89/8/1
f 101/33/1 102/34/1 91/35/1 90/36/1
f 102/33/1 103/34/1 92/35/1 91/36/1
f 103/33/1 104/34/1 93/35/1 92/36/1
f 104/37/1 105/38/1 94/39/1 93/40/1
f 105/41/1 106/42/1 95/43/1 94/44/1
f 106/33/1 107/34/1 96/35/1 95/36/1
f 107/33/1 108/34/1 97/35/1 96/36/1
f 108/33/1 109/34/1 98/35/1 97/36/1
f 109/45/1 110/46/1 99/47/1 98/48/1
f 111/25/1 112/26/1 101/27/1 100/28/1
f 112/33/1 113/34/1 102/35/1 101/36/1
f 113/33/1 114/34/1 103/35/1 102/36/1
f 114/33/1 115/34/1 104/35/1 103/36/1
f 115/1/1 116/2/1 105/3/1 104/4/1
f 116/5/1 117/6/1 106/7/1 105/8/1
f 117/33/1 118/34/1 107/35/1 106/36/1
f 118/33/1 119/34/1 108/35/1 107/36/1
f 119/33/1 120/34/1 109/35/1 108/36/1
f 120/45/1 121/46/1 110/47/1 109/48/1
f 122/25/1 123/26/1 112/27/1 111/28/1
f 123/37/1 124/38/1 113/39/1 112/40/1
f 124/41/1 125/42/1 114/43/1 113/44/1
f 125/33/1 126/34/1 115/35/1 114/36/1
f 126/33/1 127/34/1 116/35/1 115/36/1
f 127/33/1 128/34/1 117/35/1 116/36/1
f 128/33/1 129/34/1 118/35/1 117/36/1
f 129/9/1 130/10/1 119/11/1 118/12/1
f 130/13/1 131/14/1 120/15/1 119/16/1
f 131/45/1 132/46/1 121/47/1 120/48/1
f 133/25/1 134/26/1 123/27/1 122/28/1
f 134/1/1 135/2/1 124/3/1 123/4/1
f 135/5/1 136/6/1 125/7/1 124/8/1
f 136/33/1 137/34/1 126/35/1 125/36/1
f 137/33/1 138/34/1 127/35/1 126/36/1
f 138/33/1 139/34/1 128/35/1 127/36/1
f 139/33/1 140/34/1 129/35/1 128/36/1
f 140/33/1 141/34/1 130/35/1 129/36/1
f 141/33/1 142/34/1 131/35/1 130/36/1
f 142/45/1 143/46/1 132/47/1 131/48/1
f 144/25/1 145/26/1 134/27/1 133/28/1
f 145/33/1 146/34/1 135/35/1 134/36/1
f 146/33/1 147/34/1 136/35/1 135/36/1
f 147/9/1 148/10/1 137/11/1 136/12/1
f 148/13/1 149/14/1 138/15/1 137/16/1
f 149/33/1 150/34/1 139/35/1 138/36/1
f 150/33/1 151/34/1 140/35/1 139/36/1
f 151/33/1 152/34/1 141/35/1 140/36/1
f 152/33/1 153/34/1 142/35/1 141/36/1
f 153/29/1 154/30/1 143/31/1 142/32/1
f 155/25/1 156/26/1 145/27/1 144/28/1
f 156/33/1 157/34/1 146/35/1 145/36/1
f 157/37/1 158/38/1 147/39/1 146/40/1
f 158/41/1 159/42/1 148/43/1 147/44/1
f 159/33/1 160/34/1 149/35/1 148/36/1
f 160/33/1 161/34/1 150/35/1 149/36/1
f 161/33/1 162/34/1 151/35/1 150/36/1
f 162/33/1 163/34/1 152/35/1 151/36/1
f 163/33/1 164/34/1 153/35/1 152/36/1
f 164/9/1 165/10/1 154/11/1 153/12/1
f 166/25/1 167/26/1 156/27/1 155/28/1
f 167/33/1 168/34/1 157/35/1 156/36/1
f 168/1/1 169/2/1 158/3/1 157/4/1
f 169/5/1 170/6/1 159/7/1 158/8/1
f 170/33/1 171/34/1 160/35/1 159/36/1
f 171/33/1 172/34/1 161/35/1 160/36/1
f 172/37/1 173/38/1 162/39/1 161/40/1
f 173/41/1 174/42/1 163/43/1 162/44/1
f 174/33/1 175/34/1 164/35/1 163/36/1
f 175/45/1 176/46/1 165/47/1 164/48/1
f 177/25/1 178/26/1 167/27/1 166/28/1
f 178/33/1 179/34/1 168/35/1 167/36/1
f 179/33/1 180/34/1 169/35/1 168/36/1
f 180/33/1 181/34/1 170/35/1 169/36/1
f 181/33/1 182/34/1 171/35/1 170/36/1
f 182/33/1 183/34/1 172/35/1 171/36/1
f 183/1/1 184/2/1 173/3/1 172/4/1
f 184/5/1 185/6/1 174/7/1 173/8/1
f 185/33/1 186/34/1 175/35/1 174/36/1
f 186/45/1 187/46/1 176/47/1 175/48/1
f 188/25/1 189/26/1 178/27/1 177/28/1
f 189/33/1 190/34/1 179/35/1 178/36/1
f 190/33/1 191/34/1 180/35/1 179/36/1
f 191/33/1 192/34/1 181/35/1 180/36/1
f 192/33/1 193/34/1 182/35/1 181/36/1
f 193/33/1 194/34/1 183/35/1 182/36/1
f 194/9/1 195/10/1 184/11/1 183/12/1
f 195/13/1 196/14/1 185/15/1 184/16/1
f 196/33/1 197/34/1 186/35/1 185/36/1
f 197/45/1 198/46/1 187/47/1 186/48/1
f 199/25/1 200/26/1 189/27/1 188/28/1
f 200/33/1 201/34/1 190/35/1 189/36/1
f 201/33/1 202/34/1 191/35/1 190/36/1
f 202/33/1 203/34/1 192/35/1 191/36/1
f 203/33/1 204/34/1 193/35/1 192/36/1
f 204/33/1 205/34/1 194/35/1 193/36/1
f 205/33/1 206/34/1 195/35/1 194/36/1
f 206/33/1 207/34/1 196/35/1 195/36/1
f 207/33/1 208/34/1 197/35/1 196/36/1
f 208/45/1 209/46/1 198/47/1 197/48/1
f 210/49/1 211/50/1 200/51/1 199/52/1
f 211/9/1 212/10/1 201/11/1 200/12/1
f 212/13/1 213/14/1 202/15/1 201/16/1
f 213/33/1 214/34/1 203/35/1 202/36/1
f 214/33/1 215/34/1 204/35/1 203/36/1
f 215/37/1 216/38/1 205/39/1 204/40/1
f 216/41/1 217/42/1 206/43/1 205/44/1
f 217/37/1 218/38/1 207/39/1 206/40/1
f 218/41/1 219/42/1 208/43/1 207/44/1
f 219/45/1 220/46/1 209/47/1 208/48/1
f 221/53/1 222/54/1 211/55/1 210/56/1
f 222/33/1 223/34/1 212/35/1 211/36/1
f 223/9/1 224/10/1 213/11/1 212/12/1
f 224/13/1 225/14/1 214/15/1 213/16/1
f 225/33/1 226/34/1 215/35/1 214/36/1
f 226/1/1 227/2/1 216/3/1 215/4/1
f 227/5/1 228/6/1 217/7/1 216/8/1
f 228/1/1 229/2/1 218/3/1 217/4/1
f 229/5/1 230/6/1 219/7/1 218/8/1
f 230/57/1 231/58/1 220/59/1 219/60/1

