# Wavefront OBJ file automatically generated by Tiled2Unity

# Vertices (Count = 231)
v 0 -50 0
v -50 -50 0
v -50 0 0
v 0 0 0
v -100 -50 0
v -100 0 0
v -150 -50 0
v -150 0 0
v -200 -50 0
v -200 0 0
v -250 -50 0
v -250 0 0
v -300 -50 0
v -300 0 0
v -350 -50 0
v -350 0 0
v -400 -50 0
v -400 0 0
v -450 -50 0
v -450 0 0
v -500 -50 0
v -500 0 0
v -550 -50 0
v -550 0 0
v -600 -50 0
v -600 0 0
v -650 -50 0
v -650 0 0
v -700 -50 0
v -700 0 0
v -750 -50 0
v -750 0 0
v -800 -50 0
v -800 0 0
v -850 -50 0
v -850 0 0
v -900 -50 0
v -900 0 0
v -950 -50 0
v -950 0 0
v -1000 -50 0
v -1000 0 0
v 0 -100 0
v -50 -100 0
v -100 -100 0
v -150 -100 0
v -200 -100 0
v -250 -100 0
v -300 -100 0
v -350 -100 0
v -400 -100 0
v -450 -100 0
v -500 -100 0
v -550 -100 0
v -600 -100 0
v -650 -100 0
v -700 -100 0
v -750 -100 0
v -800 -100 0
v -850 -100 0
v -900 -100 0
v -950 -100 0
v -1000 -100 0
v 0 -150 0
v -50 -150 0
v -100 -150 0
v -150 -150 0
v -200 -150 0
v -250 -150 0
v -300 -150 0
v -350 -150 0
v -400 -150 0
v -450 -150 0
v -500 -150 0
v -550 -150 0
v -600 -150 0
v -650 -150 0
v -700 -150 0
v -750 -150 0
v -800 -150 0
v -850 -150 0
v -900 -150 0
v -950 -150 0
v -1000 -150 0
v 0 -200 0
v -50 -200 0
v -100 -200 0
v -150 -200 0
v -200 -200 0
v -250 -200 0
v -300 -200 0
v -350 -200 0
v -400 -200 0
v -450 -200 0
v -500 -200 0
v -550 -200 0
v -600 -200 0
v -650 -200 0
v -700 -200 0
v -750 -200 0
v -800 -200 0
v -850 -200 0
v -900 -200 0
v -950 -200 0
v -1000 -200 0
v 0 -250 0
v -50 -250 0
v -100 -250 0
v -150 -250 0
v -200 -250 0
v -250 -250 0
v -300 -250 0
v -350 -250 0
v -400 -250 0
v -450 -250 0
v -500 -250 0
v -550 -250 0
v -600 -250 0
v -650 -250 0
v -700 -250 0
v -750 -250 0
v -800 -250 0
v -850 -250 0
v -900 -250 0
v -950 -250 0
v -1000 -250 0
v 0 -300 0
v -50 -300 0
v -100 -300 0
v -150 -300 0
v -200 -300 0
v -250 -300 0
v -300 -300 0
v -350 -300 0
v -400 -300 0
v -450 -300 0
v -500 -300 0
v -550 -300 0
v -600 -300 0
v -650 -300 0
v -700 -300 0
v -750 -300 0
v -800 -300 0
v -850 -300 0
v -900 -300 0
v -950 -300 0
v -1000 -300 0
v 0 -350 0
v -50 -350 0
v -100 -350 0
v -150 -350 0
v -200 -350 0
v -250 -350 0
v -300 -350 0
v -350 -350 0
v -400 -350 0
v -450 -350 0
v -500 -350 0
v -550 -350 0
v -600 -350 0
v -650 -350 0
v -700 -350 0
v -750 -350 0
v -800 -350 0
v -850 -350 0
v -900 -350 0
v -950 -350 0
v -1000 -350 0
v 0 -400 0
v -50 -400 0
v -100 -400 0
v -150 -400 0
v -200 -400 0
v -250 -400 0
v -300 -400 0
v -350 -400 0
v -400 -400 0
v -450 -400 0
v -500 -400 0
v -550 -400 0
v -600 -400 0
v -650 -400 0
v -700 -400 0
v -750 -400 0
v -800 -400 0
v -850 -400 0
v -900 -400 0
v -950 -400 0
v -1000 -400 0
v 0 -450 0
v -50 -450 0
v -100 -450 0
v -150 -450 0
v -200 -450 0
v -250 -450 0
v -300 -450 0
v -350 -450 0
v -400 -450 0
v -450 -450 0
v -500 -450 0
v -550 -450 0
v -600 -450 0
v -650 -450 0
v -700 -450 0
v -750 -450 0
v -800 -450 0
v -850 -450 0
v -900 -450 0
v -950 -450 0
v -1000 -450 0
v 0 -500 0
v -50 -500 0
v -100 -500 0
v -150 -500 0
v -200 -500 0
v -250 -500 0
v -300 -500 0
v -350 -500 0
v -400 -500 0
v -450 -500 0
v -500 -500 0
v -550 -500 0
v -600 -500 0
v -650 -500 0
v -700 -500 0
v -750 -500 0
v -800 -500 0
v -850 -500 0
v -900 -500 0
v -950 -500 0
v -1000 -500 0

# Texture cooridinates (Count = 40)
vt 2.034505E-05 0.6667074
vt 0.1666463 0.6667074
vt 0.1666463 0.9999593
vt 2.034505E-05 0.9999593
vt 0.166687 0.6667074
vt 0.333313 0.6667074
vt 0.333313 0.9999593
vt 0.166687 0.9999593
vt 0.3333537 0.6667074
vt 0.4999796 0.6667074
vt 0.4999796 0.9999593
vt 0.3333537 0.9999593
vt 2.034505E-05 0.333374
vt 0.1666463 0.333374
vt 0.1666463 0.666626
vt 2.034505E-05 0.666626
vt 0.666687 0.333374
vt 0.833313 0.333374
vt 0.833313 0.666626
vt 0.666687 0.666626
vt 0.166687 0.333374
vt 0.333313 0.333374
vt 0.333313 0.666626
vt 0.166687 0.666626
vt 0.3333537 4.070997E-05
vt 0.4999796 4.070997E-05
vt 0.4999796 0.3332927
vt 0.3333537 0.3332927
vt 2.034505E-05 4.070997E-05
vt 0.1666463 4.070997E-05
vt 0.1666463 0.3332927
vt 2.034505E-05 0.3332927
vt 0.3333537 0.333374
vt 0.4999796 0.333374
vt 0.4999796 0.666626
vt 0.3333537 0.666626
vt 0.166687 4.070997E-05
vt 0.333313 4.070997E-05
vt 0.333313 0.3332927
vt 0.166687 0.3332927

# Normal
vn 0 0 -1

# Groups (Count = 1)

g mesh_0001
f 1/1/1 2/2/1 3/3/1 4/4/1
f 2/5/1 5/6/1 6/7/1 3/8/1
f 5/5/1 7/6/1 8/7/1 6/8/1
f 7/5/1 9/6/1 10/7/1 8/8/1
f 9/5/1 11/6/1 12/7/1 10/8/1
f 11/5/1 13/6/1 14/7/1 12/8/1
f 13/5/1 15/6/1 16/7/1 14/8/1
f 15/5/1 17/6/1 18/7/1 16/8/1
f 17/5/1 19/6/1 20/7/1 18/8/1
f 19/5/1 21/6/1 22/7/1 20/8/1
f 21/5/1 23/6/1 24/7/1 22/8/1
f 23/5/1 25/6/1 26/7/1 24/8/1
f 25/5/1 27/6/1 28/7/1 26/8/1
f 27/5/1 29/6/1 30/7/1 28/8/1
f 29/5/1 31/6/1 32/7/1 30/8/1
f 31/5/1 33/6/1 34/7/1 32/8/1
f 33/5/1 35/6/1 36/7/1 34/8/1
f 35/5/1 37/6/1 38/7/1 36/8/1
f 37/5/1 39/6/1 40/7/1 38/8/1
f 39/9/1 41/10/1 42/11/1 40/12/1
f 43/13/1 44/14/1 2/15/1 1/16/1
f 44/17/1 45/18/1 5/19/1 2/20/1
f 45/21/1 46/22/1 7/23/1 5/24/1
f 46/21/1 47/22/1 9/23/1 7/24/1
f 47/25/1 48/26/1 11/27/1 9/28/1
f 48/29/1 49/30/1 13/31/1 11/32/1
f 49/21/1 50/22/1 15/23/1 13/24/1
f 50/17/1 51/18/1 17/19/1 15/20/1
f 51/21/1 52/22/1 19/23/1 17/24/1
f 52/21/1 53/22/1 21/23/1 19/24/1
f 53/21/1 54/22/1 23/23/1 21/24/1
f 54/21/1 55/22/1 25/23/1 23/24/1
f 55/25/1 56/26/1 27/27/1 25/28/1
f 56/29/1 57/30/1 29/31/1 27/32/1
f 57/21/1 58/22/1 31/23/1 29/24/1
f 58/21/1 59/22/1 33/23/1 31/24/1
f 59/25/1 60/26/1 35/27/1 33/28/1
f 60/29/1 61/30/1 37/31/1 35/32/1
f 61/21/1 62/22/1 39/23/1 37/24/1
f 62/33/1 63/34/1 41/35/1 39/36/1
f 64/13/1 65/14/1 44/15/1 43/16/1
f 65/21/1 66/22/1 45/23/1 44/24/1
f 66/21/1 67/22/1 46/23/1 45/24/1
f 67/21/1 68/22/1 47/23/1 46/24/1
f 68/9/1 69/10/1 48/11/1 47/12/1
f 69/1/1 70/2/1 49/3/1 48/4/1
f 70/21/1 71/22/1 50/23/1 49/24/1
f 71/21/1 72/22/1 51/23/1 50/24/1
f 72/21/1 73/22/1 52/23/1 51/24/1
f 73/21/1 74/22/1 53/23/1 52/24/1
f 74/21/1 75/22/1 54/23/1 53/24/1
f 75/21/1 76/22/1 55/23/1 54/24/1
f 76/9/1 77/10/1 56/11/1 55/12/1
f 77/1/1 78/2/1 57/3/1 56/4/1
f 78/21/1 79/22/1 58/23/1 57/24/1
f 79/21/1 80/22/1 59/23/1 58/24/1
f 80/9/1 81/10/1 60/11/1 59/12/1
f 81/1/1 82/2/1 61/3/1 60/4/1
f 82/21/1 83/22/1 62/23/1 61/24/1
f 83/33/1 84/34/1 63/35/1 62/36/1
f 85/13/1 86/14/1 65/15/1 64/16/1
f 86/21/1 87/22/1 66/23/1 65/24/1
f 87/21/1 88/22/1 67/23/1 66/24/1
f 88/21/1 89/22/1 68/23/1 67/24/1
f 89/21/1 90/22/1 69/23/1 68/24/1
f 90/21/1 91/22/1 70/23/1 69/24/1
f 91/21/1 92/22/1 71/23/1 70/24/1
f 92/21/1 93/22/1 72/23/1 71/24/1
f 93/21/1 94/22/1 73/23/1 72/24/1
f 94/21/1 95/22/1 74/23/1 73/24/1
f 95/21/1 96/22/1 75/23/1 74/24/1
f 96/21/1 97/22/1 76/23/1 75/24/1
f 97/21/1 98/22/1 77/23/1 76/24/1
f 98/21/1 99/22/1 78/23/1 77/24/1
f 99/21/1 100/22/1 79/23/1 78/24/1
f 100/21/1 101/22/1 80/23/1 79/24/1
f 101/21/1 102/22/1 81/23/1 80/24/1
f 102/21/1 103/22/1 82/23/1 81/24/1
f 103/21/1 104/22/1 83/23/1 82/24/1
f 104/33/1 105/34/1 84/35/1 83/36/1
f 106/13/1 107/14/1 86/15/1 85/16/1
f 107/25/1 108/26/1 87/27/1 86/28/1
f 108/29/1 109/30/1 88/31/1 87/32/1
f 109/21/1 110/22/1 89/23/1 88/24/1
f 110/21/1 111/22/1 90/23/1 89/24/1
f 111/21/1 112/22/1 91/23/1 90/24/1
f 112/21/1 113/22/1 92/23/1 91/24/1
f 113/21/1 114/22/1 93/23/1 92/24/1
f 114/25/1 115/26/1 94/27/1 93/28/1
f 115/29/1 116/30/1 95/31/1 94/32/1
f 116/21/1 117/22/1 96/23/1 95/24/1
f 117/21/1 118/22/1 97/23/1 96/24/1
f 118/21/1 119/22/1 98/23/1 97/24/1
f 119/17/1 120/18/1 99/19/1 98/20/1
f 120/21/1 121/22/1 100/23/1 99/24/1
f 121/21/1 122/22/1 101/23/1 100/24/1
f 122/21/1 123/22/1 102/23/1 101/24/1
f 123/21/1 124/22/1 103/23/1 102/24/1
f 124/21/1 125/22/1 104/23/1 103/24/1
f 125/33/1 126/34/1 105/35/1 104/36/1
f 127/13/1 128/14/1 107/15/1 106/16/1
f 128/9/1 129/10/1 108/11/1 107/12/1
f 129/1/1 130/2/1 109/3/1 108/4/1
f 130/21/1 131/22/1 110/23/1 109/24/1
f 131/21/1 132/22/1 111/23/1 110/24/1
f 132/21/1 133/22/1 112/23/1 111/24/1
f 133/21/1 134/22/1 113/23/1 112/24/1
f 134/21/1 135/22/1 114/23/1 113/24/1
f 135/9/1 136/10/1 115/11/1 114/12/1
f 136/1/1 137/2/1 116/3/1 115/4/1
f 137/21/1 138/22/1 117/23/1 116/24/1
f 138/21/1 139/22/1 118/23/1 117/24/1
f 139/21/1 140/22/1 119/23/1 118/24/1
f 140/21/1 141/22/1 120/23/1 119/24/1
f 141/21/1 142/22/1 121/23/1 120/24/1
f 142/21/1 143/22/1 122/23/1 121/24/1
f 143/21/1 144/22/1 123/23/1 122/24/1
f 144/21/1 145/22/1 124/23/1 123/24/1
f 145/21/1 146/22/1 125/23/1 124/24/1
f 146/33/1 147/34/1 126/35/1 125/36/1
f 148/13/1 149/14/1 128/15/1 127/16/1
f 149/21/1 150/22/1 129/23/1 128/24/1
f 150/21/1 151/22/1 130/23/1 129/24/1
f 151/21/1 152/22/1 131/23/1 130/24/1
f 152/21/1 153/22/1 132/23/1 131/24/1
f 153/21/1 154/22/1 133/23/1 132/24/1
f 154/21/1 155/22/1 134/23/1 133/24/1
f 155/21/1 156/22/1 135/23/1 134/24/1
f 156/21/1 157/22/1 136/23/1 135/24/1
f 157/21/1 158/22/1 137/23/1 136/24/1
f 158/21/1 159/22/1 138/23/1 137/24/1
f 159/21/1 160/22/1 139/23/1 138/24/1
f 160/21/1 161/22/1 140/23/1 139/24/1
f 161/21/1 162/22/1 141/23/1 140/24/1
f 162/25/1 163/26/1 142/27/1 141/28/1
f 163/29/1 164/30/1 143/31/1 142/32/1
f 164/21/1 165/22/1 144/23/1 143/24/1
f 165/21/1 166/22/1 145/23/1 144/24/1
f 166/21/1 167/22/1 146/23/1 145/24/1
f 167/33/1 168/34/1 147/35/1 146/36/1
f 169/13/1 170/14/1 149/15/1 148/16/1
f 170/25/1 171/26/1 150/27/1 149/28/1
f 171/29/1 172/30/1 151/31/1 150/32/1
f 172/21/1 173/22/1 152/23/1 151/24/1
f 173/21/1 174/22/1 153/23/1 152/24/1
f 174/21/1 175/22/1 154/23/1 153/24/1
f 175/25/1 176/26/1 155/27/1 154/28/1
f 176/29/1 177/30/1 156/31/1 155/32/1
f 177/21/1 178/22/1 157/23/1 156/24/1
f 178/21/1 179/22/1 158/23/1 157/24/1
f 179/21/1 180/22/1 159/23/1 158/24/1
f 180/21/1 181/22/1 160/23/1 159/24/1
f 181/21/1 182/22/1 161/23/1 160/24/1
f 182/21/1 183/22/1 162/23/1 161/24/1
f 183/9/1 184/10/1 163/11/1 162/12/1
f 184/1/1 185/2/1 164/3/1 163/4/1
f 185/21/1 186/22/1 165/23/1 164/24/1
f 186/21/1 187/22/1 166/23/1 165/24/1
f 187/17/1 188/18/1 167/19/1 166/20/1
f 188/33/1 189/34/1 168/35/1 167/36/1
f 190/13/1 191/14/1 170/15/1 169/16/1
f 191/9/1 192/10/1 171/11/1 170/12/1
f 192/1/1 193/2/1 172/3/1 171/4/1
f 193/21/1 194/22/1 173/23/1 172/24/1
f 194/21/1 195/22/1 174/23/1 173/24/1
f 195/21/1 196/22/1 175/23/1 174/24/1
f 196/9/1 197/10/1 176/11/1 175/12/1
f 197/1/1 198/2/1 177/3/1 176/4/1
f 198/21/1 199/22/1 178/23/1 177/24/1
f 199/21/1 200/22/1 179/23/1 178/24/1
f 200/17/1 201/18/1 180/19/1 179/20/1
f 201/21/1 202/22/1 181/23/1 180/24/1
f 202/21/1 203/22/1 182/23/1 181/24/1
f 203/21/1 204/22/1 183/23/1 182/24/1
f 204/21/1 205/22/1 184/23/1 183/24/1
f 205/21/1 206/22/1 185/23/1 184/24/1
f 206/21/1 207/22/1 186/23/1 185/24/1
f 207/21/1 208/22/1 187/23/1 186/24/1
f 208/21/1 209/22/1 188/23/1 187/24/1
f 209/33/1 210/34/1 189/35/1 188/36/1
f 211/29/1 212/30/1 191/31/1 190/32/1
f 212/37/1 213/38/1 192/39/1 191/40/1
f 213/37/1 214/38/1 193/39/1 192/40/1
f 214/37/1 215/38/1 194/39/1 193/40/1
f 215/37/1 216/38/1 195/39/1 194/40/1
f 216/37/1 217/38/1 196/39/1 195/40/1
f 217/37/1 218/38/1 197/39/1 196/40/1
f 218/37/1 219/38/1 198/39/1 197/40/1
f 219/37/1 220/38/1 199/39/1 198/40/1
f 220/37/1 221/38/1 200/39/1 199/40/1
f 221/37/1 222/38/1 201/39/1 200/40/1
f 222/37/1 223/38/1 202/39/1 201/40/1
f 223/37/1 224/38/1 203/39/1 202/40/1
f 224/37/1 225/38/1 204/39/1 203/40/1
f 225/37/1 226/38/1 205/39/1 204/40/1
f 226/37/1 227/38/1 206/39/1 205/40/1
f 227/37/1 228/38/1 207/39/1 206/40/1
f 228/37/1 229/38/1 208/39/1 207/40/1
f 229/37/1 230/38/1 209/39/1 208/40/1
f 230/25/1 231/26/1 210/27/1 209/28/1

