# Wavefront OBJ file automatically generated by Tiled2Unity

# Vertices (Count = 336)
v 0 -50 0
v -50 -50 0
v -50 0 0
v 0 0 0
v -100 -50 0
v -100 0 0
v -150 -50 0
v -150 0 0
v -200 -50 0
v -200 0 0
v -250 -50 0
v -250 0 0
v -300 -50 0
v -300 0 0
v -350 -50 0
v -350 0 0
v -400 -50 0
v -400 0 0
v -450 -50 0
v -450 0 0
v -500 -50 0
v -500 0 0
v -550 -50 0
v -550 0 0
v -600 -50 0
v -600 0 0
v -650 -50 0
v -650 0 0
v -700 -50 0
v -700 0 0
v -750 -50 0
v -750 0 0
v -800 -50 0
v -800 0 0
v -850 -50 0
v -850 0 0
v -900 -50 0
v -900 0 0
v -950 -50 0
v -950 0 0
v -1000 -50 0
v -1000 0 0
v 0 -100 0
v -50 -100 0
v -100 -100 0
v -150 -100 0
v -200 -100 0
v -250 -100 0
v -300 -100 0
v -350 -100 0
v -400 -100 0
v -450 -100 0
v -500 -100 0
v -550 -100 0
v -600 -100 0
v -650 -100 0
v -700 -100 0
v -750 -100 0
v -800 -100 0
v -850 -100 0
v -900 -100 0
v -950 -100 0
v -1000 -100 0
v 0 -150 0
v -50 -150 0
v -100 -150 0
v -150 -150 0
v -200 -150 0
v -250 -150 0
v -300 -150 0
v -350 -150 0
v -400 -150 0
v -450 -150 0
v -500 -150 0
v -550 -150 0
v -600 -150 0
v -650 -150 0
v -700 -150 0
v -750 -150 0
v -800 -150 0
v -850 -150 0
v -900 -150 0
v -950 -150 0
v -1000 -150 0
v 0 -200 0
v -50 -200 0
v -100 -200 0
v -150 -200 0
v -200 -200 0
v -250 -200 0
v -300 -200 0
v -350 -200 0
v -400 -200 0
v -450 -200 0
v -500 -200 0
v -550 -200 0
v -600 -200 0
v -650 -200 0
v -700 -200 0
v -750 -200 0
v -800 -200 0
v -850 -200 0
v -900 -200 0
v -950 -200 0
v -1000 -200 0
v 0 -250 0
v -50 -250 0
v -100 -250 0
v -150 -250 0
v -200 -250 0
v -250 -250 0
v -300 -250 0
v -350 -250 0
v -400 -250 0
v -450 -250 0
v -500 -250 0
v -550 -250 0
v -600 -250 0
v -650 -250 0
v -700 -250 0
v -750 -250 0
v -800 -250 0
v -850 -250 0
v -900 -250 0
v -950 -250 0
v -1000 -250 0
v 0 -300 0
v -50 -300 0
v -100 -300 0
v -150 -300 0
v -200 -300 0
v -250 -300 0
v -300 -300 0
v -350 -300 0
v -400 -300 0
v -450 -300 0
v -500 -300 0
v -550 -300 0
v -600 -300 0
v -650 -300 0
v -700 -300 0
v -750 -300 0
v -800 -300 0
v -850 -300 0
v -900 -300 0
v -950 -300 0
v -1000 -300 0
v 0 -350 0
v -50 -350 0
v -100 -350 0
v -150 -350 0
v -200 -350 0
v -250 -350 0
v -300 -350 0
v -350 -350 0
v -400 -350 0
v -450 -350 0
v -500 -350 0
v -550 -350 0
v -600 -350 0
v -650 -350 0
v -700 -350 0
v -750 -350 0
v -800 -350 0
v -850 -350 0
v -900 -350 0
v -950 -350 0
v -1000 -350 0
v 0 -400 0
v -50 -400 0
v -100 -400 0
v -150 -400 0
v -200 -400 0
v -250 -400 0
v -300 -400 0
v -350 -400 0
v -400 -400 0
v -450 -400 0
v -500 -400 0
v -550 -400 0
v -600 -400 0
v -650 -400 0
v -700 -400 0
v -750 -400 0
v -800 -400 0
v -850 -400 0
v -900 -400 0
v -950 -400 0
v -1000 -400 0
v 0 -450 0
v -50 -450 0
v -100 -450 0
v -150 -450 0
v -200 -450 0
v -250 -450 0
v -300 -450 0
v -350 -450 0
v -400 -450 0
v -450 -450 0
v -500 -450 0
v -550 -450 0
v -600 -450 0
v -650 -450 0
v -700 -450 0
v -750 -450 0
v -800 -450 0
v -850 -450 0
v -900 -450 0
v -950 -450 0
v -1000 -450 0
v 0 -500 0
v -50 -500 0
v -100 -500 0
v -150 -500 0
v -200 -500 0
v -250 -500 0
v -300 -500 0
v -350 -500 0
v -400 -500 0
v -450 -500 0
v -500 -500 0
v -550 -500 0
v -600 -500 0
v -650 -500 0
v -700 -500 0
v -750 -500 0
v -800 -500 0
v -850 -500 0
v -900 -500 0
v -950 -500 0
v -1000 -500 0
v 0 -550 0
v -50 -550 0
v -100 -550 0
v -150 -550 0
v -200 -550 0
v -250 -550 0
v -300 -550 0
v -350 -550 0
v -400 -550 0
v -450 -550 0
v -500 -550 0
v -550 -550 0
v -600 -550 0
v -650 -550 0
v -700 -550 0
v -750 -550 0
v -800 -550 0
v -850 -550 0
v -900 -550 0
v -950 -550 0
v -1000 -550 0
v 0 -600 0
v -50 -600 0
v -100 -600 0
v -150 -600 0
v -200 -600 0
v -250 -600 0
v -300 -600 0
v -350 -600 0
v -400 -600 0
v -450 -600 0
v -500 -600 0
v -550 -600 0
v -600 -600 0
v -650 -600 0
v -700 -600 0
v -750 -600 0
v -800 -600 0
v -850 -600 0
v -900 -600 0
v -950 -600 0
v -1000 -600 0
v 0 -650 0
v -50 -650 0
v -100 -650 0
v -150 -650 0
v -200 -650 0
v -250 -650 0
v -300 -650 0
v -350 -650 0
v -400 -650 0
v -450 -650 0
v -500 -650 0
v -550 -650 0
v -600 -650 0
v -650 -650 0
v -700 -650 0
v -750 -650 0
v -800 -650 0
v -850 -650 0
v -900 -650 0
v -950 -650 0
v -1000 -650 0
v 0 -700 0
v -50 -700 0
v -100 -700 0
v -150 -700 0
v -200 -700 0
v -250 -700 0
v -300 -700 0
v -350 -700 0
v -400 -700 0
v -450 -700 0
v -500 -700 0
v -550 -700 0
v -600 -700 0
v -650 -700 0
v -700 -700 0
v -750 -700 0
v -800 -700 0
v -850 -700 0
v -900 -700 0
v -950 -700 0
v -1000 -700 0
v 0 -750 0
v -50 -750 0
v -100 -750 0
v -150 -750 0
v -200 -750 0
v -250 -750 0
v -300 -750 0
v -350 -750 0
v -400 -750 0
v -450 -750 0
v -500 -750 0
v -550 -750 0
v -600 -750 0
v -650 -750 0
v -700 -750 0
v -750 -750 0
v -800 -750 0
v -850 -750 0
v -900 -750 0
v -950 -750 0
v -1000 -750 0

# Texture cooridinates (Count = 52)
vt 2.034505E-05 0.6667074
vt 0.1666463 0.6667074
vt 0.1666463 0.9999593
vt 2.034505E-05 0.9999593
vt 0.166687 0.6667074
vt 0.333313 0.6667074
vt 0.333313 0.9999593
vt 0.166687 0.9999593
vt 0.666687 0.6667074
vt 0.833313 0.6667074
vt 0.833313 0.9999593
vt 0.666687 0.9999593
vt 0.3333537 0.6667074
vt 0.4999796 0.6667074
vt 0.4999796 0.9999593
vt 0.3333537 0.9999593
vt 2.034505E-05 0.333374
vt 0.1666463 0.333374
vt 0.1666463 0.666626
vt 2.034505E-05 0.666626
vt 0.166687 0.333374
vt 0.333313 0.333374
vt 0.333313 0.666626
vt 0.166687 0.666626
vt 0.666687 0.333374
vt 0.833313 0.333374
vt 0.833313 0.666626
vt 0.666687 0.666626
vt 0.166687 4.070997E-05
vt 0.333313 4.070997E-05
vt 0.333313 0.3332927
vt 0.166687 0.3332927
vt 0.3333537 0.333374
vt 0.4999796 0.333374
vt 0.4999796 0.666626
vt 0.3333537 0.666626
vt 0.3333537 4.070997E-05
vt 0.4999796 4.070997E-05
vt 0.4999796 0.3332927
vt 0.3333537 0.3332927
vt 2.034505E-05 4.070997E-05
vt 0.1666463 4.070997E-05
vt 0.1666463 0.3332927
vt 2.034505E-05 0.3332927
vt 0.5000203 0.333374
vt 0.6666463 0.333374
vt 0.6666463 0.666626
vt 0.5000203 0.666626
vt 0.5000203 4.070997E-05
vt 0.6666463 4.070997E-05
vt 0.6666463 0.3332927
vt 0.5000203 0.3332927

# Normal
vn 0 0 -1

# Groups (Count = 1)

g mesh_0001
f 1/1/1 2/2/1 3/3/1 4/4/1
f 2/5/1 5/6/1 6/7/1 3/8/1
f 5/5/1 7/6/1 8/7/1 6/8/1
f 7/5/1 9/6/1 10/7/1 8/8/1
f 9/5/1 11/6/1 12/7/1 10/8/1
f 11/5/1 13/6/1 14/7/1 12/8/1
f 13/9/1 15/10/1 16/11/1 14/12/1
f 15/9/1 17/10/1 18/11/1 16/12/1
f 17/9/1 19/10/1 20/11/1 18/12/1
f 19/5/1 21/6/1 22/7/1 20/8/1
f 21/5/1 23/6/1 24/7/1 22/8/1
f 23/9/1 25/10/1 26/11/1 24/12/1
f 25/5/1 27/6/1 28/7/1 26/8/1
f 27/5/1 29/6/1 30/7/1 28/8/1
f 29/5/1 31/6/1 32/7/1 30/8/1
f 31/9/1 33/10/1 34/11/1 32/12/1
f 33/9/1 35/10/1 36/11/1 34/12/1
f 35/9/1 37/10/1 38/11/1 36/12/1
f 37/9/1 39/10/1 40/11/1 38/12/1
f 39/13/1 41/14/1 42/15/1 40/16/1
f 43/17/1 44/18/1 2/19/1 1/20/1
f 44/21/1 45/22/1 5/23/1 2/24/1
f 45/21/1 46/22/1 7/23/1 5/24/1
f 46/25/1 47/26/1 9/27/1 7/28/1
f 47/21/1 48/22/1 11/23/1 9/24/1
f 48/21/1 49/22/1 13/23/1 11/24/1
f 49/21/1 50/22/1 15/23/1 13/24/1
f 50/21/1 51/22/1 17/23/1 15/24/1
f 51/21/1 52/22/1 19/23/1 17/24/1
f 52/21/1 53/22/1 21/23/1 19/24/1
f 53/21/1 54/22/1 23/23/1 21/24/1
f 54/21/1 55/22/1 25/23/1 23/24/1
f 55/21/1 56/22/1 27/23/1 25/24/1
f 56/29/1 57/30/1 29/31/1 27/32/1
f 57/29/1 58/30/1 31/31/1 29/32/1
f 58/29/1 59/30/1 33/31/1 31/32/1
f 59/29/1 60/30/1 35/31/1 33/32/1
f 60/29/1 61/30/1 37/31/1 35/32/1
f 61/21/1 62/22/1 39/23/1 37/24/1
f 62/33/1 63/34/1 41/35/1 39/36/1
f 64/17/1 65/18/1 44/19/1 43/20/1
f 65/21/1 66/22/1 45/23/1 44/24/1
f 66/21/1 67/22/1 46/23/1 45/24/1
f 67/21/1 68/22/1 47/23/1 46/24/1
f 68/21/1 69/22/1 48/23/1 47/24/1
f 69/21/1 70/22/1 49/23/1 48/24/1
f 70/21/1 71/22/1 50/23/1 49/24/1
f 71/21/1 72/22/1 51/23/1 50/24/1
f 72/21/1 73/22/1 52/23/1 51/24/1
f 73/21/1 74/22/1 53/23/1 52/24/1
f 74/21/1 75/22/1 54/23/1 53/24/1
f 75/21/1 76/22/1 55/23/1 54/24/1
f 76/21/1 77/22/1 56/23/1 55/24/1
f 77/5/1 78/6/1 57/7/1 56/8/1
f 78/5/1 79/6/1 58/7/1 57/8/1
f 79/5/1 80/6/1 59/7/1 58/8/1
f 80/5/1 81/6/1 60/7/1 59/8/1
f 81/13/1 82/14/1 61/15/1 60/16/1
f 82/17/1 83/18/1 62/19/1 61/20/1
f 83/33/1 84/34/1 63/35/1 62/36/1
f 85/17/1 86/18/1 65/19/1 64/20/1
f 86/25/1 87/26/1 66/27/1 65/28/1
f 87/21/1 88/22/1 67/23/1 66/24/1
f 88/21/1 89/22/1 68/23/1 67/24/1
f 89/21/1 90/22/1 69/23/1 68/24/1
f 90/25/1 91/26/1 70/27/1 69/28/1
f 91/21/1 92/22/1 71/23/1 70/24/1
f 92/21/1 93/22/1 72/23/1 71/24/1
f 93/21/1 94/22/1 73/23/1 72/24/1
f 94/21/1 95/22/1 74/23/1 73/24/1
f 95/21/1 96/22/1 75/23/1 74/24/1
f 96/21/1 97/22/1 76/23/1 75/24/1
f 97/21/1 98/22/1 77/23/1 76/24/1
f 98/21/1 99/22/1 78/23/1 77/24/1
f 99/21/1 100/22/1 79/23/1 78/24/1
f 100/21/1 101/22/1 80/23/1 79/24/1
f 101/21/1 102/22/1 81/23/1 80/24/1
f 102/33/1 103/34/1 82/35/1 81/36/1
f 103/17/1 104/18/1 83/19/1 82/20/1
f 104/33/1 105/34/1 84/35/1 83/36/1
f 106/17/1 107/18/1 86/19/1 85/20/1
f 107/21/1 108/22/1 87/23/1 86/24/1
f 108/21/1 109/22/1 88/23/1 87/24/1
f 109/21/1 110/22/1 89/23/1 88/24/1
f 110/21/1 111/22/1 90/23/1 89/24/1
f 111/21/1 112/22/1 91/23/1 90/24/1
f 112/21/1 113/22/1 92/23/1 91/24/1
f 113/21/1 114/22/1 93/23/1 92/24/1
f 114/21/1 115/22/1 94/23/1 93/24/1
f 115/21/1 116/22/1 95/23/1 94/24/1
f 116/21/1 117/22/1 96/23/1 95/24/1
f 117/21/1 118/22/1 97/23/1 96/24/1
f 118/37/1 119/38/1 98/39/1 97/40/1
f 119/25/1 120/26/1 99/27/1 98/28/1
f 120/25/1 121/26/1 100/27/1 99/28/1
f 121/21/1 122/22/1 101/23/1 100/24/1
f 122/21/1 123/22/1 102/23/1 101/24/1
f 123/33/1 124/34/1 103/35/1 102/36/1
f 124/17/1 125/18/1 104/19/1 103/20/1
f 125/33/1 126/34/1 105/35/1 104/36/1
f 127/17/1 128/18/1 107/19/1 106/20/1
f 128/21/1 129/22/1 108/23/1 107/24/1
f 129/21/1 130/22/1 109/23/1 108/24/1
f 130/21/1 131/22/1 110/23/1 109/24/1
f 131/21/1 132/22/1 111/23/1 110/24/1
f 132/21/1 133/22/1 112/23/1 111/24/1
f 133/21/1 134/22/1 113/23/1 112/24/1
f 134/25/1 135/26/1 114/27/1 113/28/1
f 135/21/1 136/22/1 115/23/1 114/24/1
f 136/21/1 137/22/1 116/23/1 115/24/1
f 137/21/1 138/22/1 117/23/1 116/24/1
f 138/21/1 139/22/1 118/23/1 117/24/1
f 139/25/1 140/26/1 119/27/1 118/28/1
f 140/25/1 141/26/1 120/27/1 119/28/1
f 141/1/1 142/2/1 121/3/1 120/4/1
f 142/21/1 143/22/1 122/23/1 121/24/1
f 143/21/1 144/22/1 123/23/1 122/24/1
f 144/33/1 145/34/1 124/35/1 123/36/1
f 145/17/1 146/18/1 125/19/1 124/20/1
f 146/33/1 147/34/1 126/35/1 125/36/1
f 148/17/1 149/18/1 128/19/1 127/20/1
f 149/21/1 150/22/1 129/23/1 128/24/1
f 150/21/1 151/22/1 130/23/1 129/24/1
f 151/21/1 152/22/1 131/23/1 130/24/1
f 152/21/1 153/22/1 132/23/1 131/24/1
f 153/21/1 154/22/1 133/23/1 132/24/1
f 154/21/1 155/22/1 134/23/1 133/24/1
f 155/21/1 156/22/1 135/23/1 134/24/1
f 156/21/1 157/22/1 136/23/1 135/24/1
f 157/21/1 158/22/1 137/23/1 136/24/1
f 158/21/1 159/22/1 138/23/1 137/24/1
f 159/21/1 160/22/1 139/23/1 138/24/1
f 160/21/1 161/22/1 140/23/1 139/24/1
f 161/21/1 162/22/1 141/23/1 140/24/1
f 162/21/1 163/22/1 142/23/1 141/24/1
f 163/21/1 164/22/1 143/23/1 142/24/1
f 164/21/1 165/22/1 144/23/1 143/24/1
f 165/33/1 166/34/1 145/35/1 144/36/1
f 166/17/1 167/18/1 146/19/1 145/20/1
f 167/33/1 168/34/1 147/35/1 146/36/1
f 169/17/1 170/18/1 149/19/1 148/20/1
f 170/21/1 171/22/1 150/23/1 149/24/1
f 171/21/1 172/22/1 151/23/1 150/24/1
f 172/25/1 173/26/1 152/27/1 151/28/1
f 173/21/1 174/22/1 153/23/1 152/24/1
f 174/21/1 175/22/1 154/23/1 153/24/1
f 175/21/1 176/22/1 155/23/1 154/24/1
f 176/21/1 177/22/1 156/23/1 155/24/1
f 177/21/1 178/22/1 157/23/1 156/24/1
f 178/21/1 179/22/1 158/23/1 157/24/1
f 179/21/1 180/22/1 159/23/1 158/24/1
f 180/21/1 181/22/1 160/23/1 159/24/1
f 181/21/1 182/22/1 161/23/1 160/24/1
f 182/21/1 183/22/1 162/23/1 161/24/1
f 183/21/1 184/22/1 163/23/1 162/24/1
f 184/25/1 185/26/1 164/27/1 163/28/1
f 185/21/1 186/22/1 165/23/1 164/24/1
f 186/33/1 187/34/1 166/35/1 165/36/1
f 187/17/1 188/18/1 167/19/1 166/20/1
f 188/33/1 189/34/1 168/35/1 167/36/1
f 190/17/1 191/18/1 170/19/1 169/20/1
f 191/21/1 192/22/1 171/23/1 170/24/1
f 192/21/1 193/22/1 172/23/1 171/24/1
f 193/21/1 194/22/1 173/23/1 172/24/1
f 194/21/1 195/22/1 174/23/1 173/24/1
f 195/21/1 196/22/1 175/23/1 174/24/1
f 196/21/1 197/22/1 176/23/1 175/24/1
f 197/21/1 198/22/1 177/23/1 176/24/1
f 198/37/1 199/38/1 178/39/1 177/40/1
f 199/25/1 200/26/1 179/27/1 178/28/1
f 200/21/1 201/22/1 180/23/1 179/24/1
f 201/21/1 202/22/1 181/23/1 180/24/1
f 202/21/1 203/22/1 182/23/1 181/24/1
f 203/21/1 204/22/1 183/23/1 182/24/1
f 204/21/1 205/22/1 184/23/1 183/24/1
f 205/25/1 206/26/1 185/27/1 184/28/1
f 206/21/1 207/22/1 186/23/1 185/24/1
f 207/33/1 208/34/1 187/35/1 186/36/1
f 208/17/1 209/18/1 188/19/1 187/20/1
f 209/33/1 210/34/1 189/35/1 188/36/1
f 211/17/1 212/18/1 191/19/1 190/20/1
f 212/21/1 213/22/1 192/23/1 191/24/1
f 213/25/1 214/26/1 193/27/1 192/28/1
f 214/21/1 215/22/1 194/23/1 193/24/1
f 215/21/1 216/22/1 195/23/1 194/24/1
f 216/21/1 217/22/1 196/23/1 195/24/1
f 217/21/1 218/22/1 197/23/1 196/24/1
f 218/25/1 219/26/1 198/27/1 197/28/1
f 219/25/1 220/26/1 199/27/1 198/28/1
f 220/1/1 221/2/1 200/3/1 199/4/1
f 221/21/1 222/22/1 201/23/1 200/24/1
f 222/37/1 223/38/1 202/39/1 201/40/1
f 223/41/1 224/42/1 203/43/1 202/44/1
f 224/21/1 225/22/1 204/23/1 203/24/1
f 225/21/1 226/22/1 205/23/1 204/24/1
f 226/21/1 227/22/1 206/23/1 205/24/1
f 227/21/1 228/22/1 207/23/1 206/24/1
f 228/21/1 229/22/1 208/23/1 207/24/1
f 229/21/1 230/22/1 209/23/1 208/24/1
f 230/33/1 231/34/1 210/35/1 209/36/1
f 232/17/1 233/18/1 212/19/1 211/20/1
f 233/25/1 234/26/1 213/27/1 212/28/1
f 234/21/1 235/22/1 214/23/1 213/24/1
f 235/21/1 236/22/1 215/23/1 214/24/1
f 236/21/1 237/22/1 216/23/1 215/24/1
f 237/21/1 238/22/1 217/23/1 216/24/1
f 238/21/1 239/22/1 218/23/1 217/24/1
f 239/13/1 240/14/1 219/15/1 218/16/1
f 240/25/1 241/26/1 220/27/1 219/28/1
f 241/21/1 242/22/1 221/23/1 220/24/1
f 242/21/1 243/22/1 222/23/1 221/24/1
f 243/13/1 244/14/1 223/15/1 222/16/1
f 244/1/1 245/2/1 224/3/1 223/4/1
f 245/21/1 246/22/1 225/23/1 224/24/1
f 246/25/1 247/26/1 226/27/1 225/28/1
f 247/21/1 248/22/1 227/23/1 226/24/1
f 248/21/1 249/22/1 228/23/1 227/24/1
f 249/21/1 250/22/1 229/23/1 228/24/1
f 250/21/1 251/22/1 230/23/1 229/24/1
f 251/33/1 252/34/1 231/35/1 230/36/1
f 253/17/1 254/18/1 233/19/1 232/20/1
f 254/21/1 255/22/1 234/23/1 233/24/1
f 255/21/1 256/22/1 235/23/1 234/24/1
f 256/21/1 257/22/1 236/23/1 235/24/1
f 257/21/1 258/22/1 237/23/1 236/24/1
f 258/21/1 259/22/1 238/23/1 237/24/1
f 259/21/1 260/22/1 239/23/1 238/24/1
f 260/21/1 261/22/1 240/23/1 239/24/1
f 261/21/1 262/22/1 241/23/1 240/24/1
f 262/21/1 263/22/1 242/23/1 241/24/1
f 263/21/1 264/22/1 243/23/1 242/24/1
f 264/21/1 265/22/1 244/23/1 243/24/1
f 265/21/1 266/22/1 245/23/1 244/24/1
f 266/21/1 267/22/1 246/23/1 245/24/1
f 267/21/1 268/22/1 247/23/1 246/24/1
f 268/21/1 269/22/1 248/23/1 247/24/1
f 269/21/1 270/22/1 249/23/1 248/24/1
f 270/21/1 271/22/1 250/23/1 249/24/1
f 271/21/1 272/22/1 251/23/1 250/24/1
f 272/33/1 273/34/1 252/35/1 251/36/1
f 274/37/1 275/38/1 254/39/1 253/40/1
f 275/25/1 276/26/1 255/27/1 254/28/1
f 276/21/1 277/22/1 256/23/1 255/24/1
f 277/21/1 278/22/1 257/23/1 256/24/1
f 278/21/1 279/22/1 258/23/1 257/24/1
f 279/21/1 280/22/1 259/23/1 258/24/1
f 280/21/1 281/22/1 260/23/1 259/24/1
f 281/21/1 282/22/1 261/23/1 260/24/1
f 282/21/1 283/22/1 262/23/1 261/24/1
f 283/21/1 284/22/1 263/23/1 262/24/1
f 284/21/1 285/22/1 264/23/1 263/24/1
f 285/21/1 286/22/1 265/23/1 264/24/1
f 286/21/1 287/22/1 266/23/1 265/24/1
f 287/21/1 288/22/1 267/23/1 266/24/1
f 288/21/1 289/22/1 268/23/1 267/24/1
f 289/21/1 290/22/1 269/23/1 268/24/1
f 290/25/1 291/26/1 270/27/1 269/28/1
f 291/21/1 292/22/1 271/23/1 270/24/1
f 292/21/1 293/22/1 272/23/1 271/24/1
f 293/33/1 294/34/1 273/35/1 272/36/1
f 295/45/1 296/46/1 275/47/1 274/48/1
f 296/1/1 297/2/1 276/3/1 275/4/1
f 297/21/1 298/22/1 277/23/1 276/24/1
f 298/21/1 299/22/1 278/23/1 277/24/1
f 299/37/1 300/38/1 279/39/1 278/40/1
f 300/41/1 301/42/1 280/43/1 279/44/1
f 301/21/1 302/22/1 281/23/1 280/24/1
f 302/21/1 303/22/1 282/23/1 281/24/1
f 303/21/1 304/22/1 283/23/1 282/24/1
f 304/21/1 305/22/1 284/23/1 283/24/1
f 305/21/1 306/22/1 285/23/1 284/24/1
f 306/25/1 307/26/1 286/27/1 285/28/1
f 307/21/1 308/22/1 287/23/1 286/24/1
f 308/21/1 309/22/1 288/23/1 287/24/1
f 309/21/1 310/22/1 289/23/1 288/24/1
f 310/21/1 311/22/1 290/23/1 289/24/1
f 311/25/1 312/26/1 291/27/1 290/28/1
f 312/21/1 313/22/1 292/23/1 291/24/1
f 313/21/1 314/22/1 293/23/1 292/24/1
f 314/33/1 315/34/1 294/35/1 293/36/1
f 316/49/1 317/50/1 296/51/1 295/52/1
f 317/29/1 318/30/1 297/31/1 296/32/1
f 318/29/1 319/30/1 298/31/1 297/32/1
f 319/29/1 320/30/1 299/31/1 298/32/1
f 320/29/1 321/30/1 300/31/1 299/32/1
f 321/29/1 322/30/1 301/31/1 300/32/1
f 322/29/1 323/30/1 302/31/1 301/32/1
f 323/29/1 324/30/1 303/31/1 302/32/1
f 324/29/1 325/30/1 304/31/1 303/32/1
f 325/29/1 326/30/1 305/31/1 304/32/1
f 326/29/1 327/30/1 306/31/1 305/32/1
f 327/29/1 328/30/1 307/31/1 306/32/1
f 328/29/1 329/30/1 308/31/1 307/32/1
f 329/29/1 330/30/1 309/31/1 308/32/1
f 330/29/1 331/30/1 310/31/1 309/32/1
f 331/29/1 332/30/1 311/31/1 310/32/1
f 332/29/1 333/30/1 312/31/1 311/32/1
f 333/29/1 334/30/1 313/31/1 312/32/1
f 334/29/1 335/30/1 314/31/1 313/32/1
f 335/37/1 336/38/1 315/39/1 314/40/1

